<?xml version="1.0" encoding="UTF-8" standalone="no"?> <svg xmlns="http://www.w3.org/2000/svg" viewBox="0 0 32 32"><defs><style>.cls-1{fill:#69c2f9;}.cls-2{fill:#1a1a1a;}</style></defs><title>Flag, mountain, success</title><g id="_05" data-name="05"><polygon class="cls-1" points="7 28 25 28 16 12 7 28"/><path class="cls-2" d="M25,29H7a1,1,0,0,1-.871-1.49l9-16a1.039,1.039,0,0,1,1.742,0l9,16A1,1,0,0,1,25,29ZM8.71,27H23.29L16,14.04Z"/><path class="cls-2" d="M8.13,27H3a1,1,0,0,1-.872-1.49l7.309-13A1,1,0,0,1,10.31,12h0a1,1,0,0,1,.872.51l2.56,4.56A1,1,0,0,1,12,18.05l-1.689-3.008L4.71,25H8.13a1,1,0,1,1,0,2Z"/><path class="cls-2" d="M28.62,27H23.88a1,1,0,1,1,0-2h3.03l-5.6-9.958-1.5,2.668a1,1,0,0,1-1.744-.98l2.369-4.22A1,1,0,0,1,21.31,12h0a1,1,0,0,1,.872.51l7.31,13A1,1,0,0,1,28.62,27Z"/><path class="cls-2" d="M16,13a1,1,0,0,1-1-1V4a1,1,0,0,1,2,0v8A1,1,0,0,1,16,13Z"/><path class="cls-2" d="M23,10H16a1,1,0,0,1-1-1V4a1,1,0,0,1,1-1h7a1,1,0,0,1,1,1V9A1,1,0,0,1,23,10ZM17,8h5V5H17Z"/><path class="cls-2" d="M19,25a1,1,0,0,1-.555-.168L16,23.2l-2.445,1.63a1,1,0,0,1-1.174-.047l-2.6-2.049a1,1,0,1,1,1.238-1.57l2.029,1.6,2.395-1.6a1,1,0,0,1,1.11,0l2.395,1.6,2.029-1.6a1,1,0,1,1,1.238,1.57l-2.6,2.049A1,1,0,0,1,19,25Z"/></g></svg>