<?xml version="1.0" encoding="UTF-8" standalone="no"?> <svg xmlns="http://www.w3.org/2000/svg" viewBox="0 0 32 32"><defs><style>.cls-1{fill:#1a1a1a;}.cls-2{fill:#69c2f9;}</style></defs><title>Magnifier, search, zoom</title><g id="_06" data-name="06"><path class="cls-1" d="M28,30H4a1,1,0,0,1-1-1V4A1,1,0,0,1,4,3H28a1,1,0,0,1,1,1V29A1,1,0,0,1,28,30ZM5,28H27V5H5Z"/><path class="cls-1" d="M28,11.042H4a1,1,0,0,1,0-2H28a1,1,0,0,1,0,2Z"/><path class="cls-1" d="M18,8a1.052,1.052,0,0,1-.71-.29A1.033,1.033,0,0,1,17,7a1,1,0,0,1,.08-.38,1.032,1.032,0,0,1,.21-.33,1.046,1.046,0,0,1,.91-.27.636.636,0,0,1,.18.06.757.757,0,0,1,.18.09l.15.12a1.014,1.014,0,0,1,0,1.42l-.15.12a.757.757,0,0,1-.18.09.636.636,0,0,1-.18.06A1.5,1.5,0,0,1,18,8Z"/><path class="cls-1" d="M21,8a1,1,0,0,1-.71-1.71A1,1,0,0,1,22,7a.99.99,0,0,1-1,1Z"/><path class="cls-1" d="M24,8a1,1,0,0,1-.71-1.71A1,1,0,0,1,25,7a.99.99,0,0,1-1,1Z"/><circle class="cls-2" cx="14.232" cy="17.732" r="4"/><path class="cls-1" d="M14.232,22.73a5,5,0,1,1,3.536-1.462A4.986,4.986,0,0,1,14.232,22.73Zm0-8a3,3,0,1,0,2.122.877A2.99,2.99,0,0,0,14.232,14.734Z"/><path class="cls-1" d="M20.6,25.1a.993.993,0,0,1-.707-.293l-3.535-3.535a1,1,0,0,1,1.414-1.414L21.3,23.389A1,1,0,0,1,20.6,25.1Z"/></g></svg>